<mxfile host="65bd71144e">
    <diagram id="DWkF08IwwGBSJg6NdOfJ" name="Page-1">
        <mxGraphModel dx="605" dy="579" grid="1" gridSize="10" guides="1" tooltips="1" connect="1" arrows="1" fold="1" page="1" pageScale="1" pageWidth="850" pageHeight="1100" math="0" shadow="0">
            <root>
                <mxCell id="0"/>
                <mxCell id="1" parent="0"/>
                <mxCell id="6" value="gateway stdin&amp;nbsp;&lt;div&gt;(normalize)&lt;/div&gt;" style="rounded=1;whiteSpace=wrap;html=1;fillColor=#d5e8d4;strokeColor=#82b366;verticalAlign=middle;" vertex="1" parent="1">
                    <mxGeometry x="670" y="341.09" width="130" height="55.94" as="geometry"/>
                </mxCell>
                <mxCell id="8" value="rsyslog" style="rounded=1;whiteSpace=wrap;html=1;fillColor=#d5e8d4;strokeColor=#82b366;" vertex="1" parent="1">
                    <mxGeometry x="450" y="354.06" width="120" height="30" as="geometry"/>
                </mxCell>
                <mxCell id="14" value="Hub" style="rounded=1;whiteSpace=wrap;html=1;arcSize=7;verticalAlign=top;dashed=1;fillColor=#d5e8d4;strokeColor=#82b366;" vertex="1" parent="1">
                    <mxGeometry x="1310" y="190" width="160" height="130" as="geometry"/>
                </mxCell>
                <mxCell id="15" value="sonargd" style="rounded=1;whiteSpace=wrap;html=1;" vertex="1" parent="1">
                    <mxGeometry x="1330" y="230" width="120" height="62.5" as="geometry"/>
                </mxCell>
                <mxCell id="16" style="edgeStyle=orthogonalEdgeStyle;html=1;exitX=1;exitY=0.25;exitDx=0;exitDy=0;entryX=0;entryY=0.5;entryDx=0;entryDy=0;" edge="1" parent="1" source="24" target="18">
                    <mxGeometry relative="1" as="geometry">
                        <mxPoint x="1290" y="515" as="sourcePoint"/>
                        <mxPoint x="1340" y="432.5" as="targetPoint"/>
                    </mxGeometry>
                </mxCell>
                <mxCell id="17" style="edgeStyle=orthogonalEdgeStyle;html=1;entryX=0;entryY=0.5;entryDx=0;entryDy=0;exitX=1.008;exitY=0.65;exitDx=0;exitDy=0;exitPerimeter=0;" edge="1" parent="1" source="24" target="19">
                    <mxGeometry relative="1" as="geometry">
                        <mxPoint x="1290" y="545" as="sourcePoint"/>
                        <mxPoint x="1340" y="555" as="targetPoint"/>
                    </mxGeometry>
                </mxCell>
                <mxCell id="18" value="DB #1" style="rounded=1;whiteSpace=wrap;html=1;arcSize=22;verticalAlign=middle;dashed=1;fillColor=#d5e8d4;strokeColor=#82b366;" vertex="1" parent="1">
                    <mxGeometry x="1310" y="407.5" width="160" height="50" as="geometry"/>
                </mxCell>
                <mxCell id="19" value="DB #N" style="rounded=1;whiteSpace=wrap;html=1;arcSize=22;verticalAlign=middle;dashed=1;fillColor=#d5e8d4;strokeColor=#82b366;" vertex="1" parent="1">
                    <mxGeometry x="1310" y="530" width="160" height="50" as="geometry"/>
                </mxCell>
                <mxCell id="20" value="" style="endArrow=none;dashed=1;html=1;dashPattern=1 3;strokeWidth=2;fillColor=#fff2cc;strokeColor=#000000;" edge="1" parent="1">
                    <mxGeometry width="50" height="50" relative="1" as="geometry">
                        <mxPoint x="1389.5" y="512.5" as="sourcePoint"/>
                        <mxPoint x="1389.54" y="475" as="targetPoint"/>
                    </mxGeometry>
                </mxCell>
                <mxCell id="22" style="edgeStyle=none;html=1;exitX=0.5;exitY=1;exitDx=0;exitDy=0;entryX=0.5;entryY=0;entryDx=0;entryDy=0;" edge="1" parent="1" source="23" target="24">
                    <mxGeometry relative="1" as="geometry"/>
                </mxCell>
                <mxCell id="23" value="security policy engine" style="rounded=1;whiteSpace=wrap;html=1;fillColor=#fff2cc;strokeColor=#d6b656;" vertex="1" parent="1">
                    <mxGeometry x="1130" y="410" width="120" height="60" as="geometry"/>
                </mxCell>
                <mxCell id="24" value="Connections REST API Server" style="rounded=1;whiteSpace=wrap;html=1;fillColor=#d5e8d4;strokeColor=#82b366;" vertex="1" parent="1">
                    <mxGeometry x="1130" y="500" width="120" height="60" as="geometry"/>
                </mxCell>
                <mxCell id="28" value="gateway stdin&amp;nbsp;&lt;div&gt;(audit policy)&lt;/div&gt;" style="rounded=1;whiteSpace=wrap;html=1;fillColor=#d5e8d4;strokeColor=#82b366;" vertex="1" parent="1">
                    <mxGeometry x="860" y="292.5" width="130" height="58.75" as="geometry"/>
                </mxCell>
                <mxCell id="30" value="JSONs" style="edgeStyle=none;html=1;exitX=1;exitY=0.5;exitDx=0;exitDy=0;entryX=0;entryY=0.5;entryDx=0;entryDy=0;" edge="1" parent="1" target="23">
                    <mxGeometry relative="1" as="geometry">
                        <mxPoint x="1050" y="440" as="sourcePoint"/>
                    </mxGeometry>
                </mxCell>
                <mxCell id="35" value="gateway stdin&amp;nbsp;&lt;div&gt;(security policy)&lt;/div&gt;" style="rounded=1;whiteSpace=wrap;html=1;fillColor=#d5e8d4;strokeColor=#82b366;" vertex="1" parent="1">
                    <mxGeometry x="860" y="407.5" width="130" height="58.75" as="geometry"/>
                </mxCell>
            </root>
        </mxGraphModel>
    </diagram>
</mxfile>